%TF.GenerationSoftware,KiCad,Pcbnew,7.0.11+dfsg-1build4*%
%TF.CreationDate,2025-02-13T11:22:43-05:00*%
%TF.ProjectId,sinte,73696e74-652e-46b6-9963-61645f706362,rev?*%
%TF.SameCoordinates,Original*%
%TF.FileFunction,Legend,Top*%
%TF.FilePolarity,Positive*%
%FSLAX46Y46*%
G04 Gerber Fmt 4.6, Leading zero omitted, Abs format (unit mm)*
G04 Created by KiCad (PCBNEW 7.0.11+dfsg-1build4) date 2025-02-13 11:22:43*
%MOMM*%
%LPD*%
G01*
G04 APERTURE LIST*
%ADD10C,0.150000*%
%ADD11C,0.120000*%
G04 APERTURE END LIST*
D10*
X77930476Y-60414819D02*
X77930476Y-61129104D01*
X77930476Y-61129104D02*
X77882857Y-61271961D01*
X77882857Y-61271961D02*
X77787619Y-61367200D01*
X77787619Y-61367200D02*
X77644762Y-61414819D01*
X77644762Y-61414819D02*
X77549524Y-61414819D01*
X78930476Y-61414819D02*
X78359048Y-61414819D01*
X78644762Y-61414819D02*
X78644762Y-60414819D01*
X78644762Y-60414819D02*
X78549524Y-60557676D01*
X78549524Y-60557676D02*
X78454286Y-60652914D01*
X78454286Y-60652914D02*
X78359048Y-60700533D01*
X79311429Y-60510057D02*
X79359048Y-60462438D01*
X79359048Y-60462438D02*
X79454286Y-60414819D01*
X79454286Y-60414819D02*
X79692381Y-60414819D01*
X79692381Y-60414819D02*
X79787619Y-60462438D01*
X79787619Y-60462438D02*
X79835238Y-60510057D01*
X79835238Y-60510057D02*
X79882857Y-60605295D01*
X79882857Y-60605295D02*
X79882857Y-60700533D01*
X79882857Y-60700533D02*
X79835238Y-60843390D01*
X79835238Y-60843390D02*
X79263810Y-61414819D01*
X79263810Y-61414819D02*
X79882857Y-61414819D01*
X118570476Y-60624819D02*
X118570476Y-61339104D01*
X118570476Y-61339104D02*
X118522857Y-61481961D01*
X118522857Y-61481961D02*
X118427619Y-61577200D01*
X118427619Y-61577200D02*
X118284762Y-61624819D01*
X118284762Y-61624819D02*
X118189524Y-61624819D01*
X119570476Y-61624819D02*
X118999048Y-61624819D01*
X119284762Y-61624819D02*
X119284762Y-60624819D01*
X119284762Y-60624819D02*
X119189524Y-60767676D01*
X119189524Y-60767676D02*
X119094286Y-60862914D01*
X119094286Y-60862914D02*
X118999048Y-60910533D01*
X120522857Y-61624819D02*
X119951429Y-61624819D01*
X120237143Y-61624819D02*
X120237143Y-60624819D01*
X120237143Y-60624819D02*
X120141905Y-60767676D01*
X120141905Y-60767676D02*
X120046667Y-60862914D01*
X120046667Y-60862914D02*
X119951429Y-60910533D01*
X68413333Y-71744819D02*
X68080000Y-71268628D01*
X67841905Y-71744819D02*
X67841905Y-70744819D01*
X67841905Y-70744819D02*
X68222857Y-70744819D01*
X68222857Y-70744819D02*
X68318095Y-70792438D01*
X68318095Y-70792438D02*
X68365714Y-70840057D01*
X68365714Y-70840057D02*
X68413333Y-70935295D01*
X68413333Y-70935295D02*
X68413333Y-71078152D01*
X68413333Y-71078152D02*
X68365714Y-71173390D01*
X68365714Y-71173390D02*
X68318095Y-71221009D01*
X68318095Y-71221009D02*
X68222857Y-71268628D01*
X68222857Y-71268628D02*
X67841905Y-71268628D01*
X68746667Y-70744819D02*
X69365714Y-70744819D01*
X69365714Y-70744819D02*
X69032381Y-71125771D01*
X69032381Y-71125771D02*
X69175238Y-71125771D01*
X69175238Y-71125771D02*
X69270476Y-71173390D01*
X69270476Y-71173390D02*
X69318095Y-71221009D01*
X69318095Y-71221009D02*
X69365714Y-71316247D01*
X69365714Y-71316247D02*
X69365714Y-71554342D01*
X69365714Y-71554342D02*
X69318095Y-71649580D01*
X69318095Y-71649580D02*
X69270476Y-71697200D01*
X69270476Y-71697200D02*
X69175238Y-71744819D01*
X69175238Y-71744819D02*
X68889524Y-71744819D01*
X68889524Y-71744819D02*
X68794286Y-71697200D01*
X68794286Y-71697200D02*
X68746667Y-71649580D01*
X134286666Y-91104819D02*
X134286666Y-91819104D01*
X134286666Y-91819104D02*
X134239047Y-91961961D01*
X134239047Y-91961961D02*
X134143809Y-92057200D01*
X134143809Y-92057200D02*
X134000952Y-92104819D01*
X134000952Y-92104819D02*
X133905714Y-92104819D01*
X134715238Y-91200057D02*
X134762857Y-91152438D01*
X134762857Y-91152438D02*
X134858095Y-91104819D01*
X134858095Y-91104819D02*
X135096190Y-91104819D01*
X135096190Y-91104819D02*
X135191428Y-91152438D01*
X135191428Y-91152438D02*
X135239047Y-91200057D01*
X135239047Y-91200057D02*
X135286666Y-91295295D01*
X135286666Y-91295295D02*
X135286666Y-91390533D01*
X135286666Y-91390533D02*
X135239047Y-91533390D01*
X135239047Y-91533390D02*
X134667619Y-92104819D01*
X134667619Y-92104819D02*
X135286666Y-92104819D01*
X67937142Y-92064819D02*
X67603809Y-91588628D01*
X67365714Y-92064819D02*
X67365714Y-91064819D01*
X67365714Y-91064819D02*
X67746666Y-91064819D01*
X67746666Y-91064819D02*
X67841904Y-91112438D01*
X67841904Y-91112438D02*
X67889523Y-91160057D01*
X67889523Y-91160057D02*
X67937142Y-91255295D01*
X67937142Y-91255295D02*
X67937142Y-91398152D01*
X67937142Y-91398152D02*
X67889523Y-91493390D01*
X67889523Y-91493390D02*
X67841904Y-91541009D01*
X67841904Y-91541009D02*
X67746666Y-91588628D01*
X67746666Y-91588628D02*
X67365714Y-91588628D01*
X68889523Y-92064819D02*
X68318095Y-92064819D01*
X68603809Y-92064819D02*
X68603809Y-91064819D01*
X68603809Y-91064819D02*
X68508571Y-91207676D01*
X68508571Y-91207676D02*
X68413333Y-91302914D01*
X68413333Y-91302914D02*
X68318095Y-91350533D01*
X69841904Y-92064819D02*
X69270476Y-92064819D01*
X69556190Y-92064819D02*
X69556190Y-91064819D01*
X69556190Y-91064819D02*
X69460952Y-91207676D01*
X69460952Y-91207676D02*
X69365714Y-91302914D01*
X69365714Y-91302914D02*
X69270476Y-91350533D01*
X134286666Y-73324819D02*
X134286666Y-74039104D01*
X134286666Y-74039104D02*
X134239047Y-74181961D01*
X134239047Y-74181961D02*
X134143809Y-74277200D01*
X134143809Y-74277200D02*
X134000952Y-74324819D01*
X134000952Y-74324819D02*
X133905714Y-74324819D01*
X135286666Y-74324819D02*
X134715238Y-74324819D01*
X135000952Y-74324819D02*
X135000952Y-73324819D01*
X135000952Y-73324819D02*
X134905714Y-73467676D01*
X134905714Y-73467676D02*
X134810476Y-73562914D01*
X134810476Y-73562914D02*
X134715238Y-73610533D01*
X96353333Y-91724819D02*
X96020000Y-91248628D01*
X95781905Y-91724819D02*
X95781905Y-90724819D01*
X95781905Y-90724819D02*
X96162857Y-90724819D01*
X96162857Y-90724819D02*
X96258095Y-90772438D01*
X96258095Y-90772438D02*
X96305714Y-90820057D01*
X96305714Y-90820057D02*
X96353333Y-90915295D01*
X96353333Y-90915295D02*
X96353333Y-91058152D01*
X96353333Y-91058152D02*
X96305714Y-91153390D01*
X96305714Y-91153390D02*
X96258095Y-91201009D01*
X96258095Y-91201009D02*
X96162857Y-91248628D01*
X96162857Y-91248628D02*
X95781905Y-91248628D01*
X96924762Y-91153390D02*
X96829524Y-91105771D01*
X96829524Y-91105771D02*
X96781905Y-91058152D01*
X96781905Y-91058152D02*
X96734286Y-90962914D01*
X96734286Y-90962914D02*
X96734286Y-90915295D01*
X96734286Y-90915295D02*
X96781905Y-90820057D01*
X96781905Y-90820057D02*
X96829524Y-90772438D01*
X96829524Y-90772438D02*
X96924762Y-90724819D01*
X96924762Y-90724819D02*
X97115238Y-90724819D01*
X97115238Y-90724819D02*
X97210476Y-90772438D01*
X97210476Y-90772438D02*
X97258095Y-90820057D01*
X97258095Y-90820057D02*
X97305714Y-90915295D01*
X97305714Y-90915295D02*
X97305714Y-90962914D01*
X97305714Y-90962914D02*
X97258095Y-91058152D01*
X97258095Y-91058152D02*
X97210476Y-91105771D01*
X97210476Y-91105771D02*
X97115238Y-91153390D01*
X97115238Y-91153390D02*
X96924762Y-91153390D01*
X96924762Y-91153390D02*
X96829524Y-91201009D01*
X96829524Y-91201009D02*
X96781905Y-91248628D01*
X96781905Y-91248628D02*
X96734286Y-91343866D01*
X96734286Y-91343866D02*
X96734286Y-91534342D01*
X96734286Y-91534342D02*
X96781905Y-91629580D01*
X96781905Y-91629580D02*
X96829524Y-91677200D01*
X96829524Y-91677200D02*
X96924762Y-91724819D01*
X96924762Y-91724819D02*
X97115238Y-91724819D01*
X97115238Y-91724819D02*
X97210476Y-91677200D01*
X97210476Y-91677200D02*
X97258095Y-91629580D01*
X97258095Y-91629580D02*
X97305714Y-91534342D01*
X97305714Y-91534342D02*
X97305714Y-91343866D01*
X97305714Y-91343866D02*
X97258095Y-91248628D01*
X97258095Y-91248628D02*
X97210476Y-91201009D01*
X97210476Y-91201009D02*
X97115238Y-91153390D01*
X98893333Y-86644819D02*
X98560000Y-86168628D01*
X98321905Y-86644819D02*
X98321905Y-85644819D01*
X98321905Y-85644819D02*
X98702857Y-85644819D01*
X98702857Y-85644819D02*
X98798095Y-85692438D01*
X98798095Y-85692438D02*
X98845714Y-85740057D01*
X98845714Y-85740057D02*
X98893333Y-85835295D01*
X98893333Y-85835295D02*
X98893333Y-85978152D01*
X98893333Y-85978152D02*
X98845714Y-86073390D01*
X98845714Y-86073390D02*
X98798095Y-86121009D01*
X98798095Y-86121009D02*
X98702857Y-86168628D01*
X98702857Y-86168628D02*
X98321905Y-86168628D01*
X99750476Y-85644819D02*
X99560000Y-85644819D01*
X99560000Y-85644819D02*
X99464762Y-85692438D01*
X99464762Y-85692438D02*
X99417143Y-85740057D01*
X99417143Y-85740057D02*
X99321905Y-85882914D01*
X99321905Y-85882914D02*
X99274286Y-86073390D01*
X99274286Y-86073390D02*
X99274286Y-86454342D01*
X99274286Y-86454342D02*
X99321905Y-86549580D01*
X99321905Y-86549580D02*
X99369524Y-86597200D01*
X99369524Y-86597200D02*
X99464762Y-86644819D01*
X99464762Y-86644819D02*
X99655238Y-86644819D01*
X99655238Y-86644819D02*
X99750476Y-86597200D01*
X99750476Y-86597200D02*
X99798095Y-86549580D01*
X99798095Y-86549580D02*
X99845714Y-86454342D01*
X99845714Y-86454342D02*
X99845714Y-86216247D01*
X99845714Y-86216247D02*
X99798095Y-86121009D01*
X99798095Y-86121009D02*
X99750476Y-86073390D01*
X99750476Y-86073390D02*
X99655238Y-86025771D01*
X99655238Y-86025771D02*
X99464762Y-86025771D01*
X99464762Y-86025771D02*
X99369524Y-86073390D01*
X99369524Y-86073390D02*
X99321905Y-86121009D01*
X99321905Y-86121009D02*
X99274286Y-86216247D01*
X110950476Y-60624819D02*
X110950476Y-61339104D01*
X110950476Y-61339104D02*
X110902857Y-61481961D01*
X110902857Y-61481961D02*
X110807619Y-61577200D01*
X110807619Y-61577200D02*
X110664762Y-61624819D01*
X110664762Y-61624819D02*
X110569524Y-61624819D01*
X111950476Y-61624819D02*
X111379048Y-61624819D01*
X111664762Y-61624819D02*
X111664762Y-60624819D01*
X111664762Y-60624819D02*
X111569524Y-60767676D01*
X111569524Y-60767676D02*
X111474286Y-60862914D01*
X111474286Y-60862914D02*
X111379048Y-60910533D01*
X112331429Y-60720057D02*
X112379048Y-60672438D01*
X112379048Y-60672438D02*
X112474286Y-60624819D01*
X112474286Y-60624819D02*
X112712381Y-60624819D01*
X112712381Y-60624819D02*
X112807619Y-60672438D01*
X112807619Y-60672438D02*
X112855238Y-60720057D01*
X112855238Y-60720057D02*
X112902857Y-60815295D01*
X112902857Y-60815295D02*
X112902857Y-60910533D01*
X112902857Y-60910533D02*
X112855238Y-61053390D01*
X112855238Y-61053390D02*
X112283810Y-61624819D01*
X112283810Y-61624819D02*
X112902857Y-61624819D01*
X53006666Y-77964819D02*
X53006666Y-78679104D01*
X53006666Y-78679104D02*
X52959047Y-78821961D01*
X52959047Y-78821961D02*
X52863809Y-78917200D01*
X52863809Y-78917200D02*
X52720952Y-78964819D01*
X52720952Y-78964819D02*
X52625714Y-78964819D01*
X53625714Y-78393390D02*
X53530476Y-78345771D01*
X53530476Y-78345771D02*
X53482857Y-78298152D01*
X53482857Y-78298152D02*
X53435238Y-78202914D01*
X53435238Y-78202914D02*
X53435238Y-78155295D01*
X53435238Y-78155295D02*
X53482857Y-78060057D01*
X53482857Y-78060057D02*
X53530476Y-78012438D01*
X53530476Y-78012438D02*
X53625714Y-77964819D01*
X53625714Y-77964819D02*
X53816190Y-77964819D01*
X53816190Y-77964819D02*
X53911428Y-78012438D01*
X53911428Y-78012438D02*
X53959047Y-78060057D01*
X53959047Y-78060057D02*
X54006666Y-78155295D01*
X54006666Y-78155295D02*
X54006666Y-78202914D01*
X54006666Y-78202914D02*
X53959047Y-78298152D01*
X53959047Y-78298152D02*
X53911428Y-78345771D01*
X53911428Y-78345771D02*
X53816190Y-78393390D01*
X53816190Y-78393390D02*
X53625714Y-78393390D01*
X53625714Y-78393390D02*
X53530476Y-78441009D01*
X53530476Y-78441009D02*
X53482857Y-78488628D01*
X53482857Y-78488628D02*
X53435238Y-78583866D01*
X53435238Y-78583866D02*
X53435238Y-78774342D01*
X53435238Y-78774342D02*
X53482857Y-78869580D01*
X53482857Y-78869580D02*
X53530476Y-78917200D01*
X53530476Y-78917200D02*
X53625714Y-78964819D01*
X53625714Y-78964819D02*
X53816190Y-78964819D01*
X53816190Y-78964819D02*
X53911428Y-78917200D01*
X53911428Y-78917200D02*
X53959047Y-78869580D01*
X53959047Y-78869580D02*
X54006666Y-78774342D01*
X54006666Y-78774342D02*
X54006666Y-78583866D01*
X54006666Y-78583866D02*
X53959047Y-78488628D01*
X53959047Y-78488628D02*
X53911428Y-78441009D01*
X53911428Y-78441009D02*
X53816190Y-78393390D01*
X85550476Y-60624819D02*
X85550476Y-61339104D01*
X85550476Y-61339104D02*
X85502857Y-61481961D01*
X85502857Y-61481961D02*
X85407619Y-61577200D01*
X85407619Y-61577200D02*
X85264762Y-61624819D01*
X85264762Y-61624819D02*
X85169524Y-61624819D01*
X86550476Y-61624819D02*
X85979048Y-61624819D01*
X86264762Y-61624819D02*
X86264762Y-60624819D01*
X86264762Y-60624819D02*
X86169524Y-60767676D01*
X86169524Y-60767676D02*
X86074286Y-60862914D01*
X86074286Y-60862914D02*
X85979048Y-60910533D01*
X86883810Y-60624819D02*
X87502857Y-60624819D01*
X87502857Y-60624819D02*
X87169524Y-61005771D01*
X87169524Y-61005771D02*
X87312381Y-61005771D01*
X87312381Y-61005771D02*
X87407619Y-61053390D01*
X87407619Y-61053390D02*
X87455238Y-61101009D01*
X87455238Y-61101009D02*
X87502857Y-61196247D01*
X87502857Y-61196247D02*
X87502857Y-61434342D01*
X87502857Y-61434342D02*
X87455238Y-61529580D01*
X87455238Y-61529580D02*
X87407619Y-61577200D01*
X87407619Y-61577200D02*
X87312381Y-61624819D01*
X87312381Y-61624819D02*
X87026667Y-61624819D01*
X87026667Y-61624819D02*
X86931429Y-61577200D01*
X86931429Y-61577200D02*
X86883810Y-61529580D01*
X69207142Y-97144819D02*
X68873809Y-96668628D01*
X68635714Y-97144819D02*
X68635714Y-96144819D01*
X68635714Y-96144819D02*
X69016666Y-96144819D01*
X69016666Y-96144819D02*
X69111904Y-96192438D01*
X69111904Y-96192438D02*
X69159523Y-96240057D01*
X69159523Y-96240057D02*
X69207142Y-96335295D01*
X69207142Y-96335295D02*
X69207142Y-96478152D01*
X69207142Y-96478152D02*
X69159523Y-96573390D01*
X69159523Y-96573390D02*
X69111904Y-96621009D01*
X69111904Y-96621009D02*
X69016666Y-96668628D01*
X69016666Y-96668628D02*
X68635714Y-96668628D01*
X70159523Y-97144819D02*
X69588095Y-97144819D01*
X69873809Y-97144819D02*
X69873809Y-96144819D01*
X69873809Y-96144819D02*
X69778571Y-96287676D01*
X69778571Y-96287676D02*
X69683333Y-96382914D01*
X69683333Y-96382914D02*
X69588095Y-96430533D01*
X70540476Y-96240057D02*
X70588095Y-96192438D01*
X70588095Y-96192438D02*
X70683333Y-96144819D01*
X70683333Y-96144819D02*
X70921428Y-96144819D01*
X70921428Y-96144819D02*
X71016666Y-96192438D01*
X71016666Y-96192438D02*
X71064285Y-96240057D01*
X71064285Y-96240057D02*
X71111904Y-96335295D01*
X71111904Y-96335295D02*
X71111904Y-96430533D01*
X71111904Y-96430533D02*
X71064285Y-96573390D01*
X71064285Y-96573390D02*
X70492857Y-97144819D01*
X70492857Y-97144819D02*
X71111904Y-97144819D01*
X98417142Y-71404819D02*
X98083809Y-70928628D01*
X97845714Y-71404819D02*
X97845714Y-70404819D01*
X97845714Y-70404819D02*
X98226666Y-70404819D01*
X98226666Y-70404819D02*
X98321904Y-70452438D01*
X98321904Y-70452438D02*
X98369523Y-70500057D01*
X98369523Y-70500057D02*
X98417142Y-70595295D01*
X98417142Y-70595295D02*
X98417142Y-70738152D01*
X98417142Y-70738152D02*
X98369523Y-70833390D01*
X98369523Y-70833390D02*
X98321904Y-70881009D01*
X98321904Y-70881009D02*
X98226666Y-70928628D01*
X98226666Y-70928628D02*
X97845714Y-70928628D01*
X99369523Y-71404819D02*
X98798095Y-71404819D01*
X99083809Y-71404819D02*
X99083809Y-70404819D01*
X99083809Y-70404819D02*
X98988571Y-70547676D01*
X98988571Y-70547676D02*
X98893333Y-70642914D01*
X98893333Y-70642914D02*
X98798095Y-70690533D01*
X100226666Y-70738152D02*
X100226666Y-71404819D01*
X99988571Y-70357200D02*
X99750476Y-71071485D01*
X99750476Y-71071485D02*
X100369523Y-71071485D01*
X96186666Y-108884819D02*
X96186666Y-109599104D01*
X96186666Y-109599104D02*
X96139047Y-109741961D01*
X96139047Y-109741961D02*
X96043809Y-109837200D01*
X96043809Y-109837200D02*
X95900952Y-109884819D01*
X95900952Y-109884819D02*
X95805714Y-109884819D01*
X96567619Y-108884819D02*
X97234285Y-108884819D01*
X97234285Y-108884819D02*
X96805714Y-109884819D01*
X80946666Y-103364819D02*
X80946666Y-104079104D01*
X80946666Y-104079104D02*
X80899047Y-104221961D01*
X80899047Y-104221961D02*
X80803809Y-104317200D01*
X80803809Y-104317200D02*
X80660952Y-104364819D01*
X80660952Y-104364819D02*
X80565714Y-104364819D01*
X81851428Y-103698152D02*
X81851428Y-104364819D01*
X81613333Y-103317200D02*
X81375238Y-104031485D01*
X81375238Y-104031485D02*
X81994285Y-104031485D01*
X69683333Y-86984819D02*
X69350000Y-86508628D01*
X69111905Y-86984819D02*
X69111905Y-85984819D01*
X69111905Y-85984819D02*
X69492857Y-85984819D01*
X69492857Y-85984819D02*
X69588095Y-86032438D01*
X69588095Y-86032438D02*
X69635714Y-86080057D01*
X69635714Y-86080057D02*
X69683333Y-86175295D01*
X69683333Y-86175295D02*
X69683333Y-86318152D01*
X69683333Y-86318152D02*
X69635714Y-86413390D01*
X69635714Y-86413390D02*
X69588095Y-86461009D01*
X69588095Y-86461009D02*
X69492857Y-86508628D01*
X69492857Y-86508628D02*
X69111905Y-86508628D01*
X70159524Y-86984819D02*
X70350000Y-86984819D01*
X70350000Y-86984819D02*
X70445238Y-86937200D01*
X70445238Y-86937200D02*
X70492857Y-86889580D01*
X70492857Y-86889580D02*
X70588095Y-86746723D01*
X70588095Y-86746723D02*
X70635714Y-86556247D01*
X70635714Y-86556247D02*
X70635714Y-86175295D01*
X70635714Y-86175295D02*
X70588095Y-86080057D01*
X70588095Y-86080057D02*
X70540476Y-86032438D01*
X70540476Y-86032438D02*
X70445238Y-85984819D01*
X70445238Y-85984819D02*
X70254762Y-85984819D01*
X70254762Y-85984819D02*
X70159524Y-86032438D01*
X70159524Y-86032438D02*
X70111905Y-86080057D01*
X70111905Y-86080057D02*
X70064286Y-86175295D01*
X70064286Y-86175295D02*
X70064286Y-86413390D01*
X70064286Y-86413390D02*
X70111905Y-86508628D01*
X70111905Y-86508628D02*
X70159524Y-86556247D01*
X70159524Y-86556247D02*
X70254762Y-86603866D01*
X70254762Y-86603866D02*
X70445238Y-86603866D01*
X70445238Y-86603866D02*
X70540476Y-86556247D01*
X70540476Y-86556247D02*
X70588095Y-86508628D01*
X70588095Y-86508628D02*
X70635714Y-86413390D01*
X97147142Y-96804819D02*
X96813809Y-96328628D01*
X96575714Y-96804819D02*
X96575714Y-95804819D01*
X96575714Y-95804819D02*
X96956666Y-95804819D01*
X96956666Y-95804819D02*
X97051904Y-95852438D01*
X97051904Y-95852438D02*
X97099523Y-95900057D01*
X97099523Y-95900057D02*
X97147142Y-95995295D01*
X97147142Y-95995295D02*
X97147142Y-96138152D01*
X97147142Y-96138152D02*
X97099523Y-96233390D01*
X97099523Y-96233390D02*
X97051904Y-96281009D01*
X97051904Y-96281009D02*
X96956666Y-96328628D01*
X96956666Y-96328628D02*
X96575714Y-96328628D01*
X98099523Y-96804819D02*
X97528095Y-96804819D01*
X97813809Y-96804819D02*
X97813809Y-95804819D01*
X97813809Y-95804819D02*
X97718571Y-95947676D01*
X97718571Y-95947676D02*
X97623333Y-96042914D01*
X97623333Y-96042914D02*
X97528095Y-96090533D01*
X98718571Y-95804819D02*
X98813809Y-95804819D01*
X98813809Y-95804819D02*
X98909047Y-95852438D01*
X98909047Y-95852438D02*
X98956666Y-95900057D01*
X98956666Y-95900057D02*
X99004285Y-95995295D01*
X99004285Y-95995295D02*
X99051904Y-96185771D01*
X99051904Y-96185771D02*
X99051904Y-96423866D01*
X99051904Y-96423866D02*
X99004285Y-96614342D01*
X99004285Y-96614342D02*
X98956666Y-96709580D01*
X98956666Y-96709580D02*
X98909047Y-96757200D01*
X98909047Y-96757200D02*
X98813809Y-96804819D01*
X98813809Y-96804819D02*
X98718571Y-96804819D01*
X98718571Y-96804819D02*
X98623333Y-96757200D01*
X98623333Y-96757200D02*
X98575714Y-96709580D01*
X98575714Y-96709580D02*
X98528095Y-96614342D01*
X98528095Y-96614342D02*
X98480476Y-96423866D01*
X98480476Y-96423866D02*
X98480476Y-96185771D01*
X98480476Y-96185771D02*
X98528095Y-95995295D01*
X98528095Y-95995295D02*
X98575714Y-95900057D01*
X98575714Y-95900057D02*
X98623333Y-95852438D01*
X98623333Y-95852438D02*
X98718571Y-95804819D01*
X134286666Y-58084819D02*
X134286666Y-58799104D01*
X134286666Y-58799104D02*
X134239047Y-58941961D01*
X134239047Y-58941961D02*
X134143809Y-59037200D01*
X134143809Y-59037200D02*
X134000952Y-59084819D01*
X134000952Y-59084819D02*
X133905714Y-59084819D01*
X135239047Y-58084819D02*
X134762857Y-58084819D01*
X134762857Y-58084819D02*
X134715238Y-58561009D01*
X134715238Y-58561009D02*
X134762857Y-58513390D01*
X134762857Y-58513390D02*
X134858095Y-58465771D01*
X134858095Y-58465771D02*
X135096190Y-58465771D01*
X135096190Y-58465771D02*
X135191428Y-58513390D01*
X135191428Y-58513390D02*
X135239047Y-58561009D01*
X135239047Y-58561009D02*
X135286666Y-58656247D01*
X135286666Y-58656247D02*
X135286666Y-58894342D01*
X135286666Y-58894342D02*
X135239047Y-58989580D01*
X135239047Y-58989580D02*
X135191428Y-59037200D01*
X135191428Y-59037200D02*
X135096190Y-59084819D01*
X135096190Y-59084819D02*
X134858095Y-59084819D01*
X134858095Y-59084819D02*
X134762857Y-59037200D01*
X134762857Y-59037200D02*
X134715238Y-58989580D01*
X59793333Y-100749580D02*
X59745714Y-100797200D01*
X59745714Y-100797200D02*
X59602857Y-100844819D01*
X59602857Y-100844819D02*
X59507619Y-100844819D01*
X59507619Y-100844819D02*
X59364762Y-100797200D01*
X59364762Y-100797200D02*
X59269524Y-100701961D01*
X59269524Y-100701961D02*
X59221905Y-100606723D01*
X59221905Y-100606723D02*
X59174286Y-100416247D01*
X59174286Y-100416247D02*
X59174286Y-100273390D01*
X59174286Y-100273390D02*
X59221905Y-100082914D01*
X59221905Y-100082914D02*
X59269524Y-99987676D01*
X59269524Y-99987676D02*
X59364762Y-99892438D01*
X59364762Y-99892438D02*
X59507619Y-99844819D01*
X59507619Y-99844819D02*
X59602857Y-99844819D01*
X59602857Y-99844819D02*
X59745714Y-99892438D01*
X59745714Y-99892438D02*
X59793333Y-99940057D01*
X60745714Y-100844819D02*
X60174286Y-100844819D01*
X60460000Y-100844819D02*
X60460000Y-99844819D01*
X60460000Y-99844819D02*
X60364762Y-99987676D01*
X60364762Y-99987676D02*
X60269524Y-100082914D01*
X60269524Y-100082914D02*
X60174286Y-100130533D01*
X69683333Y-66664819D02*
X69350000Y-66188628D01*
X69111905Y-66664819D02*
X69111905Y-65664819D01*
X69111905Y-65664819D02*
X69492857Y-65664819D01*
X69492857Y-65664819D02*
X69588095Y-65712438D01*
X69588095Y-65712438D02*
X69635714Y-65760057D01*
X69635714Y-65760057D02*
X69683333Y-65855295D01*
X69683333Y-65855295D02*
X69683333Y-65998152D01*
X69683333Y-65998152D02*
X69635714Y-66093390D01*
X69635714Y-66093390D02*
X69588095Y-66141009D01*
X69588095Y-66141009D02*
X69492857Y-66188628D01*
X69492857Y-66188628D02*
X69111905Y-66188628D01*
X70635714Y-66664819D02*
X70064286Y-66664819D01*
X70350000Y-66664819D02*
X70350000Y-65664819D01*
X70350000Y-65664819D02*
X70254762Y-65807676D01*
X70254762Y-65807676D02*
X70159524Y-65902914D01*
X70159524Y-65902914D02*
X70064286Y-65950533D01*
X68413333Y-81904819D02*
X68080000Y-81428628D01*
X67841905Y-81904819D02*
X67841905Y-80904819D01*
X67841905Y-80904819D02*
X68222857Y-80904819D01*
X68222857Y-80904819D02*
X68318095Y-80952438D01*
X68318095Y-80952438D02*
X68365714Y-81000057D01*
X68365714Y-81000057D02*
X68413333Y-81095295D01*
X68413333Y-81095295D02*
X68413333Y-81238152D01*
X68413333Y-81238152D02*
X68365714Y-81333390D01*
X68365714Y-81333390D02*
X68318095Y-81381009D01*
X68318095Y-81381009D02*
X68222857Y-81428628D01*
X68222857Y-81428628D02*
X67841905Y-81428628D01*
X68746667Y-80904819D02*
X69413333Y-80904819D01*
X69413333Y-80904819D02*
X68984762Y-81904819D01*
X97623333Y-81564819D02*
X97290000Y-81088628D01*
X97051905Y-81564819D02*
X97051905Y-80564819D01*
X97051905Y-80564819D02*
X97432857Y-80564819D01*
X97432857Y-80564819D02*
X97528095Y-80612438D01*
X97528095Y-80612438D02*
X97575714Y-80660057D01*
X97575714Y-80660057D02*
X97623333Y-80755295D01*
X97623333Y-80755295D02*
X97623333Y-80898152D01*
X97623333Y-80898152D02*
X97575714Y-80993390D01*
X97575714Y-80993390D02*
X97528095Y-81041009D01*
X97528095Y-81041009D02*
X97432857Y-81088628D01*
X97432857Y-81088628D02*
X97051905Y-81088628D01*
X98480476Y-80898152D02*
X98480476Y-81564819D01*
X98242381Y-80517200D02*
X98004286Y-81231485D01*
X98004286Y-81231485D02*
X98623333Y-81231485D01*
X97623333Y-76484819D02*
X97290000Y-76008628D01*
X97051905Y-76484819D02*
X97051905Y-75484819D01*
X97051905Y-75484819D02*
X97432857Y-75484819D01*
X97432857Y-75484819D02*
X97528095Y-75532438D01*
X97528095Y-75532438D02*
X97575714Y-75580057D01*
X97575714Y-75580057D02*
X97623333Y-75675295D01*
X97623333Y-75675295D02*
X97623333Y-75818152D01*
X97623333Y-75818152D02*
X97575714Y-75913390D01*
X97575714Y-75913390D02*
X97528095Y-75961009D01*
X97528095Y-75961009D02*
X97432857Y-76008628D01*
X97432857Y-76008628D02*
X97051905Y-76008628D01*
X98004286Y-75580057D02*
X98051905Y-75532438D01*
X98051905Y-75532438D02*
X98147143Y-75484819D01*
X98147143Y-75484819D02*
X98385238Y-75484819D01*
X98385238Y-75484819D02*
X98480476Y-75532438D01*
X98480476Y-75532438D02*
X98528095Y-75580057D01*
X98528095Y-75580057D02*
X98575714Y-75675295D01*
X98575714Y-75675295D02*
X98575714Y-75770533D01*
X98575714Y-75770533D02*
X98528095Y-75913390D01*
X98528095Y-75913390D02*
X97956667Y-76484819D01*
X97956667Y-76484819D02*
X98575714Y-76484819D01*
X113966666Y-99688819D02*
X113966666Y-100403104D01*
X113966666Y-100403104D02*
X113919047Y-100545961D01*
X113919047Y-100545961D02*
X113823809Y-100641200D01*
X113823809Y-100641200D02*
X113680952Y-100688819D01*
X113680952Y-100688819D02*
X113585714Y-100688819D01*
X114347619Y-99688819D02*
X114966666Y-99688819D01*
X114966666Y-99688819D02*
X114633333Y-100069771D01*
X114633333Y-100069771D02*
X114776190Y-100069771D01*
X114776190Y-100069771D02*
X114871428Y-100117390D01*
X114871428Y-100117390D02*
X114919047Y-100165009D01*
X114919047Y-100165009D02*
X114966666Y-100260247D01*
X114966666Y-100260247D02*
X114966666Y-100498342D01*
X114966666Y-100498342D02*
X114919047Y-100593580D01*
X114919047Y-100593580D02*
X114871428Y-100641200D01*
X114871428Y-100641200D02*
X114776190Y-100688819D01*
X114776190Y-100688819D02*
X114490476Y-100688819D01*
X114490476Y-100688819D02*
X114395238Y-100641200D01*
X114395238Y-100641200D02*
X114347619Y-100593580D01*
X69683333Y-76824819D02*
X69350000Y-76348628D01*
X69111905Y-76824819D02*
X69111905Y-75824819D01*
X69111905Y-75824819D02*
X69492857Y-75824819D01*
X69492857Y-75824819D02*
X69588095Y-75872438D01*
X69588095Y-75872438D02*
X69635714Y-75920057D01*
X69635714Y-75920057D02*
X69683333Y-76015295D01*
X69683333Y-76015295D02*
X69683333Y-76158152D01*
X69683333Y-76158152D02*
X69635714Y-76253390D01*
X69635714Y-76253390D02*
X69588095Y-76301009D01*
X69588095Y-76301009D02*
X69492857Y-76348628D01*
X69492857Y-76348628D02*
X69111905Y-76348628D01*
X70588095Y-75824819D02*
X70111905Y-75824819D01*
X70111905Y-75824819D02*
X70064286Y-76301009D01*
X70064286Y-76301009D02*
X70111905Y-76253390D01*
X70111905Y-76253390D02*
X70207143Y-76205771D01*
X70207143Y-76205771D02*
X70445238Y-76205771D01*
X70445238Y-76205771D02*
X70540476Y-76253390D01*
X70540476Y-76253390D02*
X70588095Y-76301009D01*
X70588095Y-76301009D02*
X70635714Y-76396247D01*
X70635714Y-76396247D02*
X70635714Y-76634342D01*
X70635714Y-76634342D02*
X70588095Y-76729580D01*
X70588095Y-76729580D02*
X70540476Y-76777200D01*
X70540476Y-76777200D02*
X70445238Y-76824819D01*
X70445238Y-76824819D02*
X70207143Y-76824819D01*
X70207143Y-76824819D02*
X70111905Y-76777200D01*
X70111905Y-76777200D02*
X70064286Y-76729580D01*
X126666666Y-104768819D02*
X126666666Y-105483104D01*
X126666666Y-105483104D02*
X126619047Y-105625961D01*
X126619047Y-105625961D02*
X126523809Y-105721200D01*
X126523809Y-105721200D02*
X126380952Y-105768819D01*
X126380952Y-105768819D02*
X126285714Y-105768819D01*
X127571428Y-104768819D02*
X127380952Y-104768819D01*
X127380952Y-104768819D02*
X127285714Y-104816438D01*
X127285714Y-104816438D02*
X127238095Y-104864057D01*
X127238095Y-104864057D02*
X127142857Y-105006914D01*
X127142857Y-105006914D02*
X127095238Y-105197390D01*
X127095238Y-105197390D02*
X127095238Y-105578342D01*
X127095238Y-105578342D02*
X127142857Y-105673580D01*
X127142857Y-105673580D02*
X127190476Y-105721200D01*
X127190476Y-105721200D02*
X127285714Y-105768819D01*
X127285714Y-105768819D02*
X127476190Y-105768819D01*
X127476190Y-105768819D02*
X127571428Y-105721200D01*
X127571428Y-105721200D02*
X127619047Y-105673580D01*
X127619047Y-105673580D02*
X127666666Y-105578342D01*
X127666666Y-105578342D02*
X127666666Y-105340247D01*
X127666666Y-105340247D02*
X127619047Y-105245009D01*
X127619047Y-105245009D02*
X127571428Y-105197390D01*
X127571428Y-105197390D02*
X127476190Y-105149771D01*
X127476190Y-105149771D02*
X127285714Y-105149771D01*
X127285714Y-105149771D02*
X127190476Y-105197390D01*
X127190476Y-105197390D02*
X127142857Y-105245009D01*
X127142857Y-105245009D02*
X127095238Y-105340247D01*
D11*
%TO.C,J11*%
X118050000Y-62170000D02*
X119380000Y-62170000D01*
X118050000Y-63500000D02*
X118050000Y-62170000D01*
X118050000Y-64770000D02*
X118050000Y-100390000D01*
X118050000Y-64770000D02*
X120710000Y-64770000D01*
X118050000Y-100390000D02*
X120710000Y-100390000D01*
X120710000Y-64770000D02*
X120710000Y-100390000D01*
%TO.C,R3*%
X65310000Y-72290000D02*
X71850000Y-72290000D01*
X65310000Y-72620000D02*
X65310000Y-72290000D01*
X65310000Y-74700000D02*
X65310000Y-75030000D01*
X65310000Y-75030000D02*
X71850000Y-75030000D01*
X71850000Y-72290000D02*
X71850000Y-72620000D01*
X71850000Y-75030000D02*
X71850000Y-74700000D01*
%TO.C,J2*%
X133290000Y-92650000D02*
X134620000Y-92650000D01*
X133290000Y-93980000D02*
X133290000Y-92650000D01*
X133290000Y-95250000D02*
X133290000Y-105470000D01*
X133290000Y-95250000D02*
X135950000Y-95250000D01*
X133290000Y-105470000D02*
X135950000Y-105470000D01*
X135950000Y-95250000D02*
X135950000Y-105470000D01*
%TO.C,R11*%
X65310000Y-92610000D02*
X71850000Y-92610000D01*
X65310000Y-92940000D02*
X65310000Y-92610000D01*
X65310000Y-95020000D02*
X65310000Y-95350000D01*
X65310000Y-95350000D02*
X71850000Y-95350000D01*
X71850000Y-92610000D02*
X71850000Y-92940000D01*
X71850000Y-95350000D02*
X71850000Y-95020000D01*
%TO.C,J1*%
X133290000Y-74870000D02*
X134620000Y-74870000D01*
X133290000Y-76200000D02*
X133290000Y-74870000D01*
X133290000Y-77470000D02*
X133290000Y-87690000D01*
X133290000Y-77470000D02*
X135950000Y-77470000D01*
X133290000Y-87690000D02*
X135950000Y-87690000D01*
X135950000Y-77470000D02*
X135950000Y-87690000D01*
%TO.C,R8*%
X99790000Y-90270000D02*
X93250000Y-90270000D01*
X99790000Y-89940000D02*
X99790000Y-90270000D01*
X99790000Y-87860000D02*
X99790000Y-87530000D01*
X99790000Y-87530000D02*
X93250000Y-87530000D01*
X93250000Y-90270000D02*
X93250000Y-89940000D01*
X93250000Y-87530000D02*
X93250000Y-87860000D01*
%TO.C,R6*%
X102330000Y-85190000D02*
X95790000Y-85190000D01*
X102330000Y-84860000D02*
X102330000Y-85190000D01*
X102330000Y-82780000D02*
X102330000Y-82450000D01*
X102330000Y-82450000D02*
X95790000Y-82450000D01*
X95790000Y-85190000D02*
X95790000Y-84860000D01*
X95790000Y-82450000D02*
X95790000Y-82780000D01*
%TO.C,J12*%
X110430000Y-62170000D02*
X111760000Y-62170000D01*
X110430000Y-63500000D02*
X110430000Y-62170000D01*
X110430000Y-64770000D02*
X110430000Y-100390000D01*
X110430000Y-64770000D02*
X113090000Y-64770000D01*
X110430000Y-100390000D02*
X113090000Y-100390000D01*
X113090000Y-64770000D02*
X113090000Y-100390000D01*
%TO.C,J8*%
X52010000Y-82550000D02*
X52010000Y-92770000D01*
X52010000Y-82550000D02*
X54670000Y-82550000D01*
X52010000Y-92770000D02*
X54670000Y-92770000D01*
X53340000Y-79950000D02*
X54670000Y-79950000D01*
X54670000Y-79950000D02*
X54670000Y-81280000D01*
X54670000Y-82550000D02*
X54670000Y-92770000D01*
%TO.C,J13*%
X85030000Y-62170000D02*
X86360000Y-62170000D01*
X85030000Y-63500000D02*
X85030000Y-62170000D01*
X85030000Y-64770000D02*
X85030000Y-100390000D01*
X85030000Y-64770000D02*
X87690000Y-64770000D01*
X85030000Y-100390000D02*
X87690000Y-100390000D01*
X87690000Y-64770000D02*
X87690000Y-100390000D01*
%TO.C,R12*%
X66580000Y-97690000D02*
X73120000Y-97690000D01*
X66580000Y-98020000D02*
X66580000Y-97690000D01*
X66580000Y-100100000D02*
X66580000Y-100430000D01*
X66580000Y-100430000D02*
X73120000Y-100430000D01*
X73120000Y-97690000D02*
X73120000Y-98020000D01*
X73120000Y-100430000D02*
X73120000Y-100100000D01*
%TO.C,R14*%
X102330000Y-69950000D02*
X95790000Y-69950000D01*
X102330000Y-69620000D02*
X102330000Y-69950000D01*
X102330000Y-67540000D02*
X102330000Y-67210000D01*
X102330000Y-67210000D02*
X95790000Y-67210000D01*
X95790000Y-69950000D02*
X95790000Y-69620000D01*
X95790000Y-67210000D02*
X95790000Y-67540000D01*
%TO.C,J7*%
X95190000Y-110430000D02*
X96520000Y-110430000D01*
X95190000Y-111760000D02*
X95190000Y-110430000D01*
X95190000Y-113030000D02*
X95190000Y-113090000D01*
X95190000Y-113030000D02*
X97850000Y-113030000D01*
X95190000Y-113090000D02*
X97850000Y-113090000D01*
X97850000Y-113030000D02*
X97850000Y-113090000D01*
%TO.C,J4*%
X79950000Y-107950000D02*
X79950000Y-118170000D01*
X79950000Y-107950000D02*
X82610000Y-107950000D01*
X79950000Y-118170000D02*
X82610000Y-118170000D01*
X81280000Y-105350000D02*
X82610000Y-105350000D01*
X82610000Y-105350000D02*
X82610000Y-106680000D01*
X82610000Y-107950000D02*
X82610000Y-118170000D01*
%TO.C,J14*%
X77410000Y-62170000D02*
X78740000Y-62170000D01*
X77410000Y-63500000D02*
X77410000Y-62170000D01*
X77410000Y-64770000D02*
X77410000Y-100390000D01*
X77410000Y-64770000D02*
X80070000Y-64770000D01*
X77410000Y-100390000D02*
X80070000Y-100390000D01*
X80070000Y-64770000D02*
X80070000Y-100390000D01*
%TO.C,R9*%
X66580000Y-87530000D02*
X73120000Y-87530000D01*
X66580000Y-87860000D02*
X66580000Y-87530000D01*
X66580000Y-89940000D02*
X66580000Y-90270000D01*
X66580000Y-90270000D02*
X73120000Y-90270000D01*
X73120000Y-87530000D02*
X73120000Y-87860000D01*
X73120000Y-90270000D02*
X73120000Y-89940000D01*
%TO.C,R10*%
X101060000Y-95350000D02*
X94520000Y-95350000D01*
X101060000Y-95020000D02*
X101060000Y-95350000D01*
X101060000Y-92940000D02*
X101060000Y-92610000D01*
X101060000Y-92610000D02*
X94520000Y-92610000D01*
X94520000Y-95350000D02*
X94520000Y-95020000D01*
X94520000Y-92610000D02*
X94520000Y-92940000D01*
%TO.C,J5*%
X133290000Y-59630000D02*
X134620000Y-59630000D01*
X133290000Y-60960000D02*
X133290000Y-59630000D01*
X133290000Y-62230000D02*
X133290000Y-72450000D01*
X133290000Y-62230000D02*
X135950000Y-62230000D01*
X133290000Y-72450000D02*
X135950000Y-72450000D01*
X135950000Y-62230000D02*
X135950000Y-72450000D01*
%TO.C,C1*%
X57155225Y-102665000D02*
X57655225Y-102665000D01*
X57405225Y-102415000D02*
X57405225Y-102915000D01*
X59960000Y-101560000D02*
X59960000Y-103100000D01*
X59960000Y-105180000D02*
X59960000Y-106720000D01*
X60000000Y-101560000D02*
X60000000Y-103100000D01*
X60000000Y-105180000D02*
X60000000Y-106720000D01*
X60040000Y-101561000D02*
X60040000Y-103100000D01*
X60040000Y-105180000D02*
X60040000Y-106719000D01*
X60080000Y-101562000D02*
X60080000Y-103100000D01*
X60080000Y-105180000D02*
X60080000Y-106718000D01*
X60120000Y-101564000D02*
X60120000Y-103100000D01*
X60120000Y-105180000D02*
X60120000Y-106716000D01*
X60160000Y-101567000D02*
X60160000Y-103100000D01*
X60160000Y-105180000D02*
X60160000Y-106713000D01*
X60200000Y-101571000D02*
X60200000Y-103100000D01*
X60200000Y-105180000D02*
X60200000Y-106709000D01*
X60240000Y-101575000D02*
X60240000Y-103100000D01*
X60240000Y-105180000D02*
X60240000Y-106705000D01*
X60280000Y-101579000D02*
X60280000Y-103100000D01*
X60280000Y-105180000D02*
X60280000Y-106701000D01*
X60320000Y-101584000D02*
X60320000Y-103100000D01*
X60320000Y-105180000D02*
X60320000Y-106696000D01*
X60360000Y-101590000D02*
X60360000Y-103100000D01*
X60360000Y-105180000D02*
X60360000Y-106690000D01*
X60400000Y-101597000D02*
X60400000Y-103100000D01*
X60400000Y-105180000D02*
X60400000Y-106683000D01*
X60440000Y-101604000D02*
X60440000Y-103100000D01*
X60440000Y-105180000D02*
X60440000Y-106676000D01*
X60480000Y-101612000D02*
X60480000Y-103100000D01*
X60480000Y-105180000D02*
X60480000Y-106668000D01*
X60520000Y-101620000D02*
X60520000Y-103100000D01*
X60520000Y-105180000D02*
X60520000Y-106660000D01*
X60560000Y-101629000D02*
X60560000Y-103100000D01*
X60560000Y-105180000D02*
X60560000Y-106651000D01*
X60600000Y-101639000D02*
X60600000Y-103100000D01*
X60600000Y-105180000D02*
X60600000Y-106641000D01*
X60640000Y-101649000D02*
X60640000Y-103100000D01*
X60640000Y-105180000D02*
X60640000Y-106631000D01*
X60681000Y-101660000D02*
X60681000Y-103100000D01*
X60681000Y-105180000D02*
X60681000Y-106620000D01*
X60721000Y-101672000D02*
X60721000Y-103100000D01*
X60721000Y-105180000D02*
X60721000Y-106608000D01*
X60761000Y-101685000D02*
X60761000Y-103100000D01*
X60761000Y-105180000D02*
X60761000Y-106595000D01*
X60801000Y-101698000D02*
X60801000Y-103100000D01*
X60801000Y-105180000D02*
X60801000Y-106582000D01*
X60841000Y-101712000D02*
X60841000Y-103100000D01*
X60841000Y-105180000D02*
X60841000Y-106568000D01*
X60881000Y-101726000D02*
X60881000Y-103100000D01*
X60881000Y-105180000D02*
X60881000Y-106554000D01*
X60921000Y-101742000D02*
X60921000Y-103100000D01*
X60921000Y-105180000D02*
X60921000Y-106538000D01*
X60961000Y-101758000D02*
X60961000Y-103100000D01*
X60961000Y-105180000D02*
X60961000Y-106522000D01*
X61001000Y-101775000D02*
X61001000Y-103100000D01*
X61001000Y-105180000D02*
X61001000Y-106505000D01*
X61041000Y-101792000D02*
X61041000Y-103100000D01*
X61041000Y-105180000D02*
X61041000Y-106488000D01*
X61081000Y-101811000D02*
X61081000Y-103100000D01*
X61081000Y-105180000D02*
X61081000Y-106469000D01*
X61121000Y-101830000D02*
X61121000Y-103100000D01*
X61121000Y-105180000D02*
X61121000Y-106450000D01*
X61161000Y-101850000D02*
X61161000Y-103100000D01*
X61161000Y-105180000D02*
X61161000Y-106430000D01*
X61201000Y-101872000D02*
X61201000Y-103100000D01*
X61201000Y-105180000D02*
X61201000Y-106408000D01*
X61241000Y-101893000D02*
X61241000Y-103100000D01*
X61241000Y-105180000D02*
X61241000Y-106387000D01*
X61281000Y-101916000D02*
X61281000Y-103100000D01*
X61281000Y-105180000D02*
X61281000Y-106364000D01*
X61321000Y-101940000D02*
X61321000Y-103100000D01*
X61321000Y-105180000D02*
X61321000Y-106340000D01*
X61361000Y-101965000D02*
X61361000Y-103100000D01*
X61361000Y-105180000D02*
X61361000Y-106315000D01*
X61401000Y-101991000D02*
X61401000Y-103100000D01*
X61401000Y-105180000D02*
X61401000Y-106289000D01*
X61441000Y-102018000D02*
X61441000Y-103100000D01*
X61441000Y-105180000D02*
X61441000Y-106262000D01*
X61481000Y-102045000D02*
X61481000Y-103100000D01*
X61481000Y-105180000D02*
X61481000Y-106235000D01*
X61521000Y-102075000D02*
X61521000Y-103100000D01*
X61521000Y-105180000D02*
X61521000Y-106205000D01*
X61561000Y-102105000D02*
X61561000Y-103100000D01*
X61561000Y-105180000D02*
X61561000Y-106175000D01*
X61601000Y-102136000D02*
X61601000Y-103100000D01*
X61601000Y-105180000D02*
X61601000Y-106144000D01*
X61641000Y-102169000D02*
X61641000Y-103100000D01*
X61641000Y-105180000D02*
X61641000Y-106111000D01*
X61681000Y-102203000D02*
X61681000Y-103100000D01*
X61681000Y-105180000D02*
X61681000Y-106077000D01*
X61721000Y-102239000D02*
X61721000Y-103100000D01*
X61721000Y-105180000D02*
X61721000Y-106041000D01*
X61761000Y-102276000D02*
X61761000Y-103100000D01*
X61761000Y-105180000D02*
X61761000Y-106004000D01*
X61801000Y-102314000D02*
X61801000Y-103100000D01*
X61801000Y-105180000D02*
X61801000Y-105966000D01*
X61841000Y-102355000D02*
X61841000Y-103100000D01*
X61841000Y-105180000D02*
X61841000Y-105925000D01*
X61881000Y-102397000D02*
X61881000Y-103100000D01*
X61881000Y-105180000D02*
X61881000Y-105883000D01*
X61921000Y-102441000D02*
X61921000Y-103100000D01*
X61921000Y-105180000D02*
X61921000Y-105839000D01*
X61961000Y-102487000D02*
X61961000Y-103100000D01*
X61961000Y-105180000D02*
X61961000Y-105793000D01*
X62001000Y-102535000D02*
X62001000Y-105745000D01*
X62041000Y-102586000D02*
X62041000Y-105694000D01*
X62081000Y-102640000D02*
X62081000Y-105640000D01*
X62121000Y-102697000D02*
X62121000Y-105583000D01*
X62161000Y-102757000D02*
X62161000Y-105523000D01*
X62201000Y-102821000D02*
X62201000Y-105459000D01*
X62241000Y-102889000D02*
X62241000Y-105391000D01*
X62281000Y-102962000D02*
X62281000Y-105318000D01*
X62321000Y-103042000D02*
X62321000Y-105238000D01*
X62361000Y-103129000D02*
X62361000Y-105151000D01*
X62401000Y-103225000D02*
X62401000Y-105055000D01*
X62441000Y-103335000D02*
X62441000Y-104945000D01*
X62481000Y-103463000D02*
X62481000Y-104817000D01*
X62521000Y-103622000D02*
X62521000Y-104658000D01*
X62561000Y-103856000D02*
X62561000Y-104424000D01*
X62580000Y-104140000D02*
G75*
G03*
X57340000Y-104140000I-2620000J0D01*
G01*
X57340000Y-104140000D02*
G75*
G03*
X62580000Y-104140000I2620000J0D01*
G01*
%TO.C,R1*%
X66580000Y-67210000D02*
X73120000Y-67210000D01*
X66580000Y-67540000D02*
X66580000Y-67210000D01*
X66580000Y-69620000D02*
X66580000Y-69950000D01*
X66580000Y-69950000D02*
X73120000Y-69950000D01*
X73120000Y-67210000D02*
X73120000Y-67540000D01*
X73120000Y-69950000D02*
X73120000Y-69620000D01*
%TO.C,R7*%
X65310000Y-82450000D02*
X71850000Y-82450000D01*
X65310000Y-82780000D02*
X65310000Y-82450000D01*
X65310000Y-84860000D02*
X65310000Y-85190000D01*
X65310000Y-85190000D02*
X71850000Y-85190000D01*
X71850000Y-82450000D02*
X71850000Y-82780000D01*
X71850000Y-85190000D02*
X71850000Y-84860000D01*
%TO.C,R4*%
X101060000Y-80110000D02*
X94520000Y-80110000D01*
X101060000Y-79780000D02*
X101060000Y-80110000D01*
X101060000Y-77700000D02*
X101060000Y-77370000D01*
X101060000Y-77370000D02*
X94520000Y-77370000D01*
X94520000Y-80110000D02*
X94520000Y-79780000D01*
X94520000Y-77370000D02*
X94520000Y-77700000D01*
%TO.C,R2*%
X101060000Y-75030000D02*
X94520000Y-75030000D01*
X101060000Y-74700000D02*
X101060000Y-75030000D01*
X101060000Y-72620000D02*
X101060000Y-72290000D01*
X101060000Y-72290000D02*
X94520000Y-72290000D01*
X94520000Y-75030000D02*
X94520000Y-74700000D01*
X94520000Y-72290000D02*
X94520000Y-72620000D01*
%TO.C,J3*%
X112970000Y-104274000D02*
X112970000Y-114494000D01*
X112970000Y-104274000D02*
X115630000Y-104274000D01*
X112970000Y-114494000D02*
X115630000Y-114494000D01*
X114300000Y-101674000D02*
X115630000Y-101674000D01*
X115630000Y-101674000D02*
X115630000Y-103004000D01*
X115630000Y-104274000D02*
X115630000Y-114494000D01*
%TO.C,R5*%
X66580000Y-77370000D02*
X73120000Y-77370000D01*
X66580000Y-77700000D02*
X66580000Y-77370000D01*
X66580000Y-79780000D02*
X66580000Y-80110000D01*
X66580000Y-80110000D02*
X73120000Y-80110000D01*
X73120000Y-77370000D02*
X73120000Y-77700000D01*
X73120000Y-80110000D02*
X73120000Y-79780000D01*
%TO.C,J6*%
X125670000Y-109354000D02*
X125670000Y-111954000D01*
X125670000Y-109354000D02*
X128330000Y-109354000D01*
X125670000Y-111954000D02*
X128330000Y-111954000D01*
X127000000Y-106754000D02*
X128330000Y-106754000D01*
X128330000Y-106754000D02*
X128330000Y-108084000D01*
X128330000Y-109354000D02*
X128330000Y-111954000D01*
%TD*%
M02*
